<?xml version="1.0" standalone="no"?>
<!DOCTYPE svg PUBLIC "-//W3C//DTD SVG 20010904//EN"
 "http://www.w3.org/TR/2001/REC-SVG-20010904/DTD/svg10.dtd">
<svg version="1.0" xmlns="http://www.w3.org/2000/svg"
 width="300.000000pt" height="300.000000pt" viewBox="0 0 300.000000 300.000000"
 preserveAspectRatio="xMidYMid meet">

<g transform="translate(0.000000,300.000000) scale(0.100000,-0.100000)"
fill="#000000" stroke="none">
<path d="M1441 2929 c-104 -20 -219 -70 -301 -130 -25 -18 -66 -44 -92 -57
-58 -29 -122 -99 -141 -155 -14 -40 -16 -42 -52 -40 -62 4 -113 -15 -170 -65
-29 -26 -74 -64 -99 -85 -54 -45 -76 -83 -82 -141 -2 -22 -7 -64 -10 -91 -5
-38 -1 -61 12 -90 10 -22 19 -49 21 -60 2 -11 10 -69 18 -130 9 -60 20 -119
25 -130 9 -19 70 -321 70 -345 0 -7 -9 -9 -22 -4 -68 21 -115 -7 -144 -85 -14
-37 -18 -91 -22 -271 l-4 -225 48 -65 c48 -66 197 -220 213 -220 5 0 14 57 20
127 7 71 16 162 21 203 5 41 12 121 16 178 6 89 5 102 -9 102 -18 0 -34 79
-22 102 6 9 5 10 -3 3 -5 -5 -12 -18 -14 -29 -1 -10 -3 60 -3 155 0 163 1 176
23 210 12 20 22 43 22 50 0 8 15 32 32 54 21 25 27 37 15 32 -12 -5 -16 -2
-14 12 2 11 7 25 13 33 5 7 11 67 12 133 3 129 9 175 22 175 4 0 28 -11 51
-25 62 -35 72 -32 46 13 l-22 37 28 -18 c15 -10 27 -13 27 -7 0 6 5 8 10 5 6
-4 17 -2 25 5 8 7 16 7 19 1 7 -11 46 -2 46 11 0 6 6 6 14 -1 8 -7 25 -13 38
-15 13 -1 29 -6 36 -10 15 -9 32 1 32 20 0 8 5 14 10 14 6 0 10 -5 10 -10 0
-6 6 -10 13 -9 6 1 35 1 62 0 l50 -1 1 -58 c0 -65 23 -111 93 -192 22 -25 43
-57 46 -72 7 -27 6 -27 -52 -30 l-58 -3 -3 -42 -3 -41 -187 -4 c-181 -3 -189
-4 -243 -31 -66 -32 -132 -99 -162 -165 -33 -72 -31 -199 4 -267 l27 -50 -14
-140 c-7 -77 -18 -192 -24 -255 -5 -63 -13 -140 -16 -171 l-6 -56 63 -42 c68
-45 227 -125 270 -136 l25 -6 13 248 c18 344 27 453 40 466 14 14 14 32 -9
-378 -10 -187 -16 -343 -12 -347 11 -11 200 -45 285 -52 l77 -6 0 445 0 445
-70 0 c-38 0 -70 3 -70 6 0 12 24 49 36 57 8 4 14 18 14 31 0 29 42 72 78 79
44 9 94 -22 111 -68 8 -22 19 -42 23 -43 5 -2 15 -17 23 -33 l16 -29 -66 0
-65 0 0 -444 0 -444 68 5 c75 5 232 35 275 52 27 11 28 13 23 64 -12 106 -38
638 -32 644 3 4 9 3 12 0 4 -4 15 -140 25 -304 10 -164 19 -319 21 -345 l3
-47 70 31 c69 30 200 103 242 136 l22 17 -14 160 c-8 88 -21 225 -29 304 l-15
144 26 51 c36 70 43 183 17 257 -25 71 -107 159 -176 190 -48 21 -70 24 -235
27 l-182 4 -3 41 -3 42 -62 3 c-59 3 -62 4 -68 31 -3 16 -31 58 -61 95 -31 37
-62 83 -70 101 -18 43 -19 125 -1 126 201 11 283 11 417 -3 110 -11 212 -5
329 18 28 6 30 4 45 -47 11 -34 16 -92 16 -165 0 -62 4 -115 9 -118 5 -3 9
-17 9 -31 0 -13 -5 -22 -10 -19 -15 9 8 -30 26 -46 9 -7 16 -20 16 -30 0 -9
13 -36 29 -61 l29 -44 -10 -123 c-6 -81 -6 -139 1 -170 11 -55 6 -69 -8 -21
-5 21 -10 26 -10 14 -1 -11 3 -35 8 -53 11 -37 5 -43 -10 -9 -9 20 -9 20 -4
-6 5 -24 2 -27 -20 -27 -21 0 -24 -4 -20 -27 3 -16 9 -80 15 -143 12 -142 40
-432 43 -444 4 -14 170 156 221 226 l48 68 -4 227 c-3 207 -5 232 -24 273 -12
25 -30 53 -42 64 -24 21 -85 24 -107 6 -8 -7 -15 -9 -15 -4 0 24 63 329 72
352 7 15 13 38 15 52 1 14 5 45 9 70 3 25 7 59 8 75 1 17 4 35 8 41 4 5 6 35
4 65 -3 70 1 82 25 68 14 -7 19 -6 19 3 0 9 3 9 12 0 20 -20 27 -14 19 16 -13
44 -47 105 -71 127 l-22 20 39 16 38 16 -37 7 c-22 4 -38 13 -38 20 0 8 -39
54 -86 102 -57 59 -96 110 -116 149 -35 72 -95 137 -152 161 -22 9 -63 27 -91
39 -71 31 -111 43 -186 55 -37 5 -95 23 -130 40 -60 28 -151 51 -188 49 -9 -1
-36 -5 -60 -10z m979 -788 c23 -6 25 -11 25 -71 0 -36 -4 -71 -8 -77 -5 -7 -7
-23 -4 -35 3 -11 2 -29 -3 -38 -5 -9 -10 -43 -11 -76 -2 -32 -9 -74 -17 -93
-8 -19 -34 -138 -58 -265 -25 -126 -47 -232 -50 -235 -3 -3 -3 63 1 147 7 148
7 154 -14 176 -12 13 -23 34 -23 47 -1 13 -9 33 -18 44 -28 33 -31 43 -15 48
8 4 12 1 10 -6 -3 -7 9 -27 25 -44 40 -45 50 -42 11 3 -17 19 -29 39 -27 43 3
4 -8 23 -23 42 -28 34 -29 38 -30 162 -1 79 -7 142 -16 167 l-14 40 37 10 c71
19 174 24 222 11z m-815 -464 l0 -28 -108 -2 -107 -2 0 33 0 33 108 -3 107 -3
0 -28z m-95 -232 c0 -57 -4 -95 -10 -95 -6 0 -10 38 -10 95 0 57 4 95 10 95 6
0 10 -38 10 -95z m-60 5 l0 -80 -65 0 -65 0 -20 40 c-11 21 -20 57 -20 80 l0
40 85 0 85 0 0 -80z m177 48 l33 -32 0 32 c0 27 4 32 25 32 23 0 25 -4 25 -45
0 -43 -22 -105 -37 -105 -4 0 -20 12 -35 27 l-28 27 0 -32 c0 -29 -3 -32 -30
-32 l-30 0 0 80 c0 76 1 80 22 80 12 0 37 -14 55 -32z m-537 -87 c0 -40 0 -40
43 -43 42 -3 42 -3 45 -45 l3 -43 -45 0 -46 0 0 -45 0 -45 -44 0 -45 0 -3 43
c-3 42 -3 42 -46 45 l-43 3 3 42 c3 42 3 42 46 45 42 3 42 3 42 43 l0 39 45 0
45 0 0 -39z m834 13 c24 -24 20 -61 -9 -80 -23 -15 -27 -15 -50 0 -42 28 -24
96 25 96 10 0 26 -7 34 -16z m138 -1 c26 -23 23 -59 -7 -79 -23 -15 -27 -15
-50 0 -44 29 -28 95 24 96 8 0 23 -7 33 -17z m-1427 -58 c14 -13 25 -33 25
-44 0 -11 3 -27 7 -36 5 -15 3 -16 -15 -6 -30 16 -78 14 -96 -5 -18 -17 -32
-62 -22 -71 3 -4 6 3 6 15 0 27 33 62 59 62 28 0 81 -48 81 -73 0 -44 -27 -57
-118 -57 l-85 0 5 73 c5 72 34 150 60 160 32 13 70 6 93 -18z m1841 -13 c23
-33 50 -161 41 -186 -4 -10 -28 -14 -85 -15 -65 -1 -84 2 -103 18 -20 16 -22
23 -14 47 6 17 26 37 48 49 47 26 66 15 90 -51 18 -49 18 -49 12 -9 -10 61
-29 85 -71 85 -19 0 -44 -4 -54 -10 -16 -9 -17 -6 -9 28 5 20 9 40 9 44 0 15
56 38 85 35 21 -1 36 -12 51 -35z m-552 -58 c24 -24 20 -61 -9 -80 -23 -15
-27 -15 -50 0 -42 28 -24 96 25 96 10 0 26 -7 34 -16z m138 -1 c26 -23 23 -59
-7 -79 -23 -15 -27 -15 -50 0 -44 29 -28 95 24 96 8 0 23 -7 33 -17z m-1335
-125 c-3 -8 -6 -5 -6 6 -1 11 2 17 5 13 3 -3 4 -12 1 -19z m-37 -8 c0 -5 -5
-10 -11 -10 -5 0 -7 5 -4 10 3 6 8 10 11 10 2 0 4 -4 4 -10z m1625 0 c3 -5 1
-10 -4 -10 -6 0 -11 5 -11 10 0 6 2 10 4 10 3 0 8 -4 11 -10z m-1759 -76 c12
-3 28 -20 36 -37 l16 -32 12 28 c13 26 50 39 50 16 0 -6 9 -8 20 -4 18 6 20 2
20 -37 0 -24 -4 -81 -10 -128 -5 -47 -12 -114 -15 -150 -4 -36 -7 -66 -8 -67
-1 0 -14 9 -29 20 l-27 22 9 94 c9 86 8 112 -5 100 -2 -3 -8 -44 -11 -92 l-7
-86 -27 19 c-27 19 -27 21 -24 112 2 62 1 85 -5 68 -5 -14 -9 -52 -10 -85 l-1
-60 -26 27 -27 26 8 126 c8 135 7 134 61 120z m1934 -32 c0 -38 0 -38 -65 -61
-41 -15 -65 -29 -65 -38 0 -10 6 -13 16 -9 9 3 27 9 40 12 21 6 24 3 24 -24 0
-24 -7 -35 -35 -52 -40 -25 -51 -59 -12 -39 12 7 38 25 58 40 20 16 40 29 43
29 3 0 6 -18 6 -40 0 -37 -5 -44 -92 -119 -50 -45 -93 -79 -95 -77 -5 4 -33
297 -33 343 l0 42 48 6 c26 4 63 11 82 15 73 16 80 14 80 -28z m-1582 -18 c11
-3 12 -16 7 -53 -4 -33 -1 -66 11 -106 l17 -59 23 45 c12 24 25 65 29 92 l7
47 40 0 40 0 -7 -72 c-6 -59 -16 -91 -55 -168 -39 -77 -49 -108 -54 -164 -3
-38 -8 -71 -11 -74 -3 -3 -21 2 -41 11 l-36 17 7 76 c7 68 4 86 -25 183 -29
95 -32 115 -26 174 8 72 8 72 74 51z m1261 -215 c12 -118 21 -218 21 -222 0
-3 -13 -13 -29 -21 l-29 -15 -6 37 c-3 21 -9 77 -12 125 -4 48 -11 90 -17 94
-9 6 -6 -78 9 -212 5 -47 4 -51 -25 -68 -16 -9 -32 -14 -34 -10 -3 5 -8 60
-12 123 -10 158 -27 188 -20 35 3 -66 8 -132 11 -146 4 -23 0 -28 -27 -38 -18
-6 -34 -10 -36 -8 -6 6 -37 516 -32 522 3 2 20 8 37 11 28 6 33 3 54 -31 l22
-38 14 41 c11 35 18 41 45 44 18 2 35 1 39 -2 4 -3 16 -102 27 -221z m-806
195 l77 -7 0 -88 0 -89 -74 0 c-58 0 -75 -3 -80 -16 -3 -9 -6 -58 -6 -109 0
-98 3 -105 51 -105 14 0 19 7 19 25 0 20 -5 25 -25 25 -24 0 -25 2 -25 71 l0
72 38 -7 c20 -3 52 -6 71 -6 l34 0 -7 -182 c-3 -100 -9 -184 -11 -186 -5 -5
-221 25 -233 32 -4 2 -2 116 5 253 6 136 12 265 12 286 1 36 2 37 39 37 22 0
73 -3 115 -6z m443 -181 c5 -104 9 -233 9 -288 l0 -99 -35 -7 c-19 -4 -36 -6
-38 -4 -2 2 -6 22 -9 44 -6 42 -11 45 -50 35 -19 -5 -23 -13 -23 -49 0 -41 -1
-43 -35 -49 -20 -4 -40 -4 -45 -1 -6 4 -10 118 -10 300 l0 294 38 4 c20 2 71
4 113 5 l77 2 8 -187z"/>
<path d="M2270 1612 c6 -13 14 -21 18 -18 3 4 -2 14 -12 24 -18 16 -18 16 -6
-6z"/>
<path d="M1340 1450 c0 -15 7 -20 25 -20 18 0 25 5 25 20 0 15 -7 20 -25 20
-18 0 -25 -5 -25 -20z"/>
<path d="M1660 765 c0 -21 5 -25 30 -25 25 0 30 4 30 25 0 21 -5 25 -30 25
-25 0 -30 -4 -30 -25z"/>
</g>
</svg>
